<?xml version="1.0" encoding="utf-8" standalone="no"?>
<!DOCTYPE svg PUBLIC "-//W3C//DTD SVG 1.1//EN"
  "http://www.w3.org/Graphics/SVG/1.1/DTD/svg11.dtd">
<!-- Created with matplotlib (http://matplotlib.org/) -->
<svg height="311pt" version="1.1" viewBox="0 0 329 311" width="329pt" xmlns="http://www.w3.org/2000/svg" xmlns:xlink="http://www.w3.org/1999/xlink">
 <defs>
  <style type="text/css">
*{stroke-linecap:butt;stroke-linejoin:round;stroke-miterlimit:100000;}
  </style>
 </defs>
 <g id="figure_1">
  <g id="patch_1">
   <path d="M 0 311.917187 
L 329.634375 311.917187 
L 329.634375 0 
L 0 0 
z
" style="fill:none;"/>
  </g>
  <g id="axes_1">
   <g id="patch_2">
    <path d="M 35.482813 291.039062 
L 314.482813 291.039062 
L 314.482813 12.039062 
L 35.482813 12.039062 
z
" style="fill:#ffffff;"/>
   </g>
   <g id="line2d_1">
    <path clip-path="url(#p539bbdcd98)" d="M 314.482813 151.539062 
L 313.360509 133.879415 
L 310.011656 116.503918 
L 304.490139 99.69215 
L 296.884801 83.714618 
L 287.318013 68.828406 
L 275.943711 55.27304 
L 262.94491 43.266631 
L 248.530765 33.002365 
L 232.933207 24.645399 
L 216.403205 18.3302 
L 199.206733 14.158381 
L 181.62049 12.197069 
L 163.927444 12.477821 
L 146.412282 14.996121 
L 129.356832 19.711448 
L 113.03552 26.547931 
L 97.710964 35.395568 
L 83.62974 46.111997 
L 71.018422 58.524787 
L 60.079929 72.434211 
L 50.990267 87.616463 
L 43.895692 103.827253 
L 38.910357 120.805743 
L 36.114479 138.278744 
L 35.553045 155.965109 
L 37.235088 173.580257 
L 41.133543 190.840754 
L 47.185683 207.468872 
L 55.294126 223.197059 
L 65.328406 237.772241 
L 77.127066 250.959899 
L 90.500261 262.547839 
L 105.232813 272.349606 
L 121.087667 280.207487 
L 137.809715 285.995044 
L 155.129893 289.619154 
L 172.769511 291.021503 
L 190.444741 290.179528 
L 207.871184 287.106776 
L 224.76844 281.852689 
L 240.864627 274.501807 
L 255.900751 265.172408 
L 269.634875 254.014606 
L 281.846012 241.207934 
L 292.33768 226.958457 
L 300.941065 211.495453 
L 307.517733 195.067728 
L 311.961866 177.939611 
L 314.201954 160.386699 
L 314.201954 142.691426 
L 311.961866 125.138514 
L 307.517733 108.010397 
L 300.941065 91.582672 
L 292.33768 76.119668 
L 281.846012 61.870191 
L 269.634875 49.063519 
L 255.900751 37.905717 
L 240.864627 28.576318 
L 224.76844 21.225436 
L 207.871184 15.971349 
L 190.444741 12.898597 
L 172.769511 12.056622 
L 155.129893 13.458971 
L 137.809715 17.083081 
L 121.087667 22.870638 
L 105.232812 30.728519 
L 90.500261 40.530286 
L 77.127066 52.118226 
L 65.328406 65.305884 
L 55.294126 79.881066 
L 47.185683 95.609253 
L 41.133543 112.237371 
L 37.235088 129.497868 
L 35.553045 147.113016 
L 36.114479 164.799381 
L 38.910357 182.272382 
L 43.895692 199.250872 
L 50.990267 215.461662 
L 60.079929 230.643914 
L 71.018422 244.553338 
L 83.62974 256.966128 
L 97.710964 267.682557 
L 113.03552 276.530194 
L 129.356832 283.366677 
L 146.412282 288.082004 
L 163.927444 290.600304 
L 181.62049 290.881056 
L 199.206733 288.919744 
L 216.403205 284.747925 
L 232.933207 278.432726 
L 248.530765 270.07576 
L 262.94491 259.811494 
L 275.943711 247.805085 
L 287.318013 234.249719 
L 296.884801 219.363507 
L 304.490139 203.385975 
L 310.011656 186.574207 
L 313.360509 169.19871 
L 314.482813 151.539062 
" style="fill:none;stroke:#0000ff;stroke-linecap:square;"/>
   </g>
   <g id="line2d_2">
    <path clip-path="url(#p539bbdcd98)" d="M 314.482813 95.739062 
L 313.360509 80.00265 
L 310.011656 65.417285 
L 304.490139 52.217652 
L 296.884801 40.616137 
L 287.318013 30.799414 
L 275.943711 22.925437 
L 262.94491 17.120901 
L 248.530765 13.479204 
L 232.933207 12.058941 
L 216.403205 12.882966 
L 199.206733 15.93802 
L 181.62049 21.174945 
L 163.927444 28.509477 
L 146.412282 37.823602 
L 129.356832 48.967451 
L 113.03552 61.761715 
L 97.710964 76.000531 
L 83.62974 91.45479 
L 71.018422 107.875827 
L 60.079929 124.999422 
L 50.990267 142.55005 
L 43.895692 160.245315 
L 38.910357 177.800492 
L 36.114479 194.933114 
L 35.553045 211.367508 
L 37.235088 226.839241 
L 41.133543 241.099366 
L 47.185683 253.918432 
L 55.294126 265.090175 
L 65.328406 274.434839 
L 77.127066 281.802063 
L 90.500261 287.073307 
L 105.232813 290.163755 
L 121.087667 291.023679 
L 137.809715 289.639244 
L 155.129893 286.032724 
L 172.769511 280.262152 
L 190.444741 272.420377 
L 207.871184 262.633576 
L 224.76844 251.059223 
L 240.864627 237.883553 
L 255.900751 223.318568 
L 269.634875 207.598624 
L 281.846012 190.976661 
L 292.33768 173.720132 
L 300.941065 156.106701 
L 307.517733 138.419775 
L 311.961866 120.943944 
L 314.201954 103.960399 
L 314.201954 87.742413 
L 311.961866 72.550939 
L 307.517733 58.630413 
L 300.941065 46.204822 
L 292.33768 35.474099 
L 281.846012 26.610904 
L 269.634875 19.75785 
L 255.900751 15.025206 
L 240.864627 12.48912 
L 224.76844 12.1904 
L 207.871184 14.133852 
L 190.444741 18.288205 
L 172.769511 24.586615 
L 155.129893 32.927737 
L 137.809715 43.177359 
L 121.087667 55.170562 
L 105.232812 68.71437 
L 90.500261 83.590859 
L 77.127066 99.560659 
L 65.328406 116.366812 
L 55.294126 133.738899 
L 47.185683 151.397397 
L 41.133543 169.058175 
L 37.235088 186.437064 
L 35.553045 203.254431 
L 36.114479 219.239678 
L 38.910357 234.135597 
L 43.895692 247.702507 
L 50.990267 259.722111 
L 60.079929 270.001009 
L 71.018422 278.37381 
L 83.62974 284.705793 
L 97.710964 288.895073 
L 113.03552 290.874244 
L 129.356832 290.611459 
L 146.412282 288.110947 
L 163.927444 283.412943 
L 181.62049 276.593038 
L 199.206733 267.760969 
L 216.403205 257.058845 
L 232.933207 244.658868 
L 248.530765 230.760559 
L 262.94491 215.587547 
L 275.943711 199.38397 
L 287.318013 182.410551 
L 296.884801 164.940398 
L 304.490139 147.254612 
L 310.011656 129.637765 
L 313.360509 112.373318 
L 314.482813 95.739062 
" style="fill:none;stroke:#008000;stroke-linecap:square;"/>
   </g>
   <g id="line2d_3">
    <path clip-path="url(#p539bbdcd98)" d="M 314.482813 39.939062 
L 313.360509 30.241117 
L 310.011656 22.494901 
L 304.490139 16.825054 
L 296.884801 13.322805 
L 287.318013 12.044508 
L 275.943711 13.010731 
L 262.94491 16.205926 
L 248.530765 21.578682 
L 232.933207 29.042549 
L 216.403205 38.477431 
L 199.206733 49.731517 
L 181.62049 62.623724 
L 163.927444 76.946613 
L 146.412282 92.469722 
L 129.356832 108.943279 
L 113.03552 126.102218 
L 97.710964 143.670445 
L 83.62974 161.365281 
L 71.018422 178.90201 
L 60.079929 195.998458 
L 50.990267 212.379539 
L 43.895692 227.781673 
L 38.910357 241.957035 
L 36.114479 254.677538 
L 35.553045 265.738505 
L 37.235088 274.961959 
L 41.133543 282.199493 
L 47.185683 287.334652 
L 55.294126 290.284809 
L 65.328406 291.002495 
L 77.127066 289.476162 
L 90.500261 285.73037 
L 105.232813 279.825389 
L 121.087667 271.856233 
L 137.809715 261.951129 
L 155.129893 250.269453 
L 172.769511 236.999169 
L 190.444741 222.353799 
L 207.871184 206.568994 
L 224.76844 189.898736 
L 240.864627 172.611257 
L 255.900751 154.984719 
L 269.634875 137.302738 
L 281.846012 119.849826 
L 292.33768 102.906805 
L 300.941065 86.746295 
L 307.517733 71.628325 
L 311.961866 57.796149 
L 314.201954 45.472331 
L 314.201954 34.855167 
L 311.961866 26.115491 
L 307.517733 19.393926 
L 300.941065 14.798627 
L 292.33768 12.403532 
L 281.846012 12.24718 
L 269.634875 14.332086 
L 255.900751 18.624704 
L 240.864627 25.055964 
L 224.76844 33.522384 
L 207.871184 43.887737 
L 190.444741 55.98524 
L 172.769511 69.62024 
L 155.129893 84.573344 
L 137.809715 100.603951 
L 121.087667 117.454124 
L 105.232812 134.852736 
L 90.500261 152.519838 
L 77.127066 170.171158 
L 65.328406 187.522681 
L 55.294126 204.295214 
L 47.185683 220.218881 
L 41.133543 235.037463 
L 37.235088 248.512526 
L 35.553045 260.427249 
L 36.114479 270.58992 
L 38.910357 278.837018 
L 43.895692 285.035845 
L 50.990267 289.086658 
L 60.079929 290.92428 
L 71.018422 290.51914 
L 83.62974 287.87776 
L 97.710964 283.042638 
L 113.03552 276.091575 
L 129.356832 267.136416 
L 146.412282 256.321251 
L 163.927444 243.820102 
L 181.62049 229.834117 
L 199.206733 214.588335 
L 216.403205 198.328066 
L 232.933207 181.314945 
L 248.530765 163.822719 
L 262.94491 146.132844 
L 275.943711 128.529957 
L 287.318013 111.297295 
L 296.884801 94.712139 
L 304.490139 79.041349 
L 310.011656 64.537074 
L 313.360509 51.432694 
L 314.482813 39.939062 
" style="fill:none;stroke:#ff0000;stroke-linecap:square;"/>
   </g>
   <g id="line2d_4">
    <path clip-path="url(#p539bbdcd98)" d="M 314.482813 25.989062 
L 313.360509 19.301474 
L 310.011656 14.741638 
L 304.490139 12.382923 
L 296.884801 12.263283 
L 287.318013 14.384643 
L 275.943711 18.712868 
L 262.94491 25.178316 
L 248.530765 33.676957 
L 232.933207 44.072042 
L 216.403205 56.196312 
L 199.206733 69.854683 
L 181.62049 84.827386 
L 163.927444 100.873505 
L 146.412282 117.734851 
L 129.356832 135.14012 
L 113.03552 152.809255 
L 97.710964 170.457951 
L 83.62974 187.802235 
L 71.018422 204.563031 
L 60.079929 220.470652 
L 50.990267 235.269138 
L 43.895692 248.720375 
L 38.910357 260.607929 
L 36.114479 270.740524 
L 35.553045 278.955122 
L 37.235088 285.119549 
L 41.133543 289.134616 
L 47.185683 290.935718 
L 55.294126 290.493876 
L 65.328406 287.8162 
L 77.127066 282.945773 
L 90.500261 275.960963 
L 105.232813 266.974158 
L 121.087667 256.129959 
L 137.809715 243.602853 
L 155.129893 229.594407 
L 172.769511 214.330021 
L 190.444741 198.055304 
L 207.871184 181.032125 
L 224.76844 163.53439 
L 240.864627 145.843647 
L 255.900751 128.244544 
L 269.634875 111.02026 
L 281.846012 94.447938 
L 292.33768 78.794233 
L 300.941065 64.31102 
L 307.517733 51.231339 
L 311.961866 39.765647 
L 314.201954 30.098431 
L 314.201954 22.38524 
L 311.961866 16.750182 
L 307.517733 13.283928 
L 300.941065 12.042251 
L 292.33768 13.04513 
L 281.846012 16.276428 
L 269.634875 21.684152 
L 255.900751 29.181291 
L 240.864627 38.647211 
L 224.76844 49.929604 
L 207.871184 62.846932 
L 190.444741 77.191349 
L 172.769511 92.732048 
L 155.129893 109.218974 
L 137.809715 126.386846 
L 121.087667 143.959427 
L 105.232812 161.653967 
L 90.500261 179.185755 
L 77.127066 196.272697 
L 65.328406 212.639857 
L 55.294126 228.023884 
L 47.185683 242.17724 
L 41.133543 254.872195 
L 37.235088 265.904481 
L 35.553045 275.096584 
L 36.114479 282.300601 
L 38.910357 287.400616 
L 43.895692 290.314567 
L 50.990267 290.995568 
L 60.079929 289.432662 
L 71.018422 285.650997 
L 83.62974 279.71142 
L 97.710964 271.709502 
L 113.03552 261.773997 
L 129.356832 250.06477 
L 146.412282 236.770228 
L 163.927444 222.104284 
L 181.62049 206.30292 
L 199.206733 189.620385 
L 216.403205 172.325106 
L 232.933207 154.695373 
L 248.530765 137.014854 
L 262.94491 119.568034 
L 275.943711 102.63564 
L 287.318013 86.490121 
L 296.884801 71.391263 
L 304.490139 57.582014 
L 310.011656 45.284568 
L 313.360509 34.696798 
L 314.482813 25.989063 
" style="fill:none;stroke:#00bfbf;stroke-linecap:square;"/>
   </g>
   <g id="line2d_5">
    <path clip-path="url(#p539bbdcd98)" d="M 314.482813 12.039062 
L 313.360509 13.161366 
L 310.011656 16.510219 
L 304.490139 22.031736 
L 296.884801 29.637074 
L 287.318013 39.203862 
L 275.943711 50.578164 
L 262.94491 63.576965 
L 248.530765 77.99111 
L 232.933207 93.588668 
L 216.403205 110.11867 
L 199.206733 127.315142 
L 181.62049 144.901385 
L 163.927444 162.594431 
L 146.412282 180.109593 
L 129.356832 197.165043 
L 113.03552 213.486355 
L 97.710964 228.810911 
L 83.62974 242.892135 
L 71.018422 255.503453 
L 60.079929 266.441946 
L 50.990267 275.531608 
L 43.895692 282.626183 
L 38.910357 287.611518 
L 36.114479 290.407396 
L 35.553045 290.96883 
L 37.235088 289.286787 
L 41.133543 285.388332 
L 47.185683 279.336192 
L 55.294126 271.227749 
L 65.328406 261.193469 
L 77.127066 249.394809 
L 90.500261 236.021614 
L 105.232813 221.289062 
L 121.087667 205.434208 
L 137.809715 188.71216 
L 155.129893 171.391982 
L 172.769511 153.752364 
L 190.444741 136.077134 
L 207.871184 118.650691 
L 224.76844 101.753435 
L 240.864627 85.657248 
L 255.900751 70.621124 
L 269.634875 56.887 
L 281.846012 44.675863 
L 292.33768 34.184195 
L 300.941065 25.58081 
L 307.517733 19.004142 
L 311.961866 14.560009 
L 314.201954 12.319921 
L 314.201954 12.319921 
L 311.961866 14.560009 
L 307.517733 19.004142 
L 300.941065 25.58081 
L 292.33768 34.184195 
L 281.846012 44.675863 
L 269.634875 56.887 
L 255.900751 70.621124 
L 240.864627 85.657248 
L 224.76844 101.753435 
L 207.871184 118.650691 
L 190.444741 136.077134 
L 172.769511 153.752364 
L 155.129893 171.391982 
L 137.809715 188.71216 
L 121.087667 205.434208 
L 105.232812 221.289063 
L 90.500261 236.021614 
L 77.127066 249.394809 
L 65.328406 261.193469 
L 55.294126 271.227749 
L 47.185683 279.336192 
L 41.133543 285.388332 
L 37.235088 289.286787 
L 35.553045 290.96883 
L 36.114479 290.407396 
L 38.910357 287.611518 
L 43.895692 282.626183 
L 50.990267 275.531608 
L 60.079929 266.441946 
L 71.018422 255.503453 
L 83.62974 242.892135 
L 97.710964 228.810911 
L 113.03552 213.486355 
L 129.356832 197.165043 
L 146.412282 180.109593 
L 163.927444 162.594431 
L 181.62049 144.901385 
L 199.206733 127.315142 
L 216.403205 110.11867 
L 232.933207 93.588668 
L 248.530765 77.99111 
L 262.94491 63.576965 
L 275.943711 50.578164 
L 287.318013 39.203862 
L 296.884801 29.637074 
L 304.490139 22.031736 
L 310.011656 16.510219 
L 313.360509 13.161366 
L 314.482813 12.039062 
" style="fill:none;stroke:#bf00bf;stroke-linecap:square;"/>
   </g>
   <g id="patch_3">
    <path d="M 35.482813 12.039062 
L 314.482813 12.039062 
" style="fill:none;stroke:#000000;stroke-linecap:square;stroke-linejoin:miter;"/>
   </g>
   <g id="patch_4">
    <path d="M 35.482813 291.039062 
L 314.482813 291.039062 
" style="fill:none;stroke:#000000;stroke-linecap:square;stroke-linejoin:miter;"/>
   </g>
   <g id="patch_5">
    <path d="M 35.482813 291.039062 
L 35.482813 12.039062 
" style="fill:none;stroke:#000000;stroke-linecap:square;stroke-linejoin:miter;"/>
   </g>
   <g id="patch_6">
    <path d="M 314.482813 291.039062 
L 314.482813 12.039062 
" style="fill:none;stroke:#000000;stroke-linecap:square;stroke-linejoin:miter;"/>
   </g>
   <g id="matplotlib.axis_1">
    <g id="xtick_1">
     <g id="line2d_6">
      <defs>
       <path d="M 0 0 
L 0 -4 
" id="mf2cdce7b0f" style="stroke:#000000;stroke-width:0.5;"/>
      </defs>
      <g>
       <use style="stroke:#000000;stroke-width:0.5;" x="35.4828125" xlink:href="#mf2cdce7b0f" y="291.0390625"/>
      </g>
     </g>
     <g id="line2d_7">
      <defs>
       <path d="M 0 0 
L 0 4 
" id="m5602835205" style="stroke:#000000;stroke-width:0.5;"/>
      </defs>
      <g>
       <use style="stroke:#000000;stroke-width:0.5;" x="35.4828125" xlink:href="#m5602835205" y="12.0390625"/>
      </g>
     </g>
     <g id="text_1">
      <!-- −1.0 -->
      <defs>
       <path d="M 10.59375 35.5 
L 73.1875 35.5 
L 73.1875 27.203125 
L 10.59375 27.203125 
z
" id="BitstreamVeraSans-Roman-2212"/>
       <path d="M 12.40625 8.296875 
L 28.515625 8.296875 
L 28.515625 63.921875 
L 10.984375 60.40625 
L 10.984375 69.390625 
L 28.421875 72.90625 
L 38.28125 72.90625 
L 38.28125 8.296875 
L 54.390625 8.296875 
L 54.390625 0 
L 12.40625 0 
z
" id="BitstreamVeraSans-Roman-31"/>
       <path d="M 10.6875 12.40625 
L 21 12.40625 
L 21 0 
L 10.6875 0 
z
" id="BitstreamVeraSans-Roman-2e"/>
       <path d="M 31.78125 66.40625 
Q 24.171875 66.40625 20.328125 58.90625 
Q 16.5 51.421875 16.5 36.375 
Q 16.5 21.390625 20.328125 13.890625 
Q 24.171875 6.390625 31.78125 6.390625 
Q 39.453125 6.390625 43.28125 13.890625 
Q 47.125 21.390625 47.125 36.375 
Q 47.125 51.421875 43.28125 58.90625 
Q 39.453125 66.40625 31.78125 66.40625 
M 31.78125 74.21875 
Q 44.046875 74.21875 50.515625 64.515625 
Q 56.984375 54.828125 56.984375 36.375 
Q 56.984375 17.96875 50.515625 8.265625 
Q 44.046875 -1.421875 31.78125 -1.421875 
Q 19.53125 -1.421875 13.0625 8.265625 
Q 6.59375 17.96875 6.59375 36.375 
Q 6.59375 54.828125 13.0625 64.515625 
Q 19.53125 74.21875 31.78125 74.21875 
" id="BitstreamVeraSans-Roman-30"/>
      </defs>
      <g transform="translate(23.34140625 302.6375)scale(0.1 -0.1)">
       <use xlink:href="#BitstreamVeraSans-Roman-2212"/>
       <use x="83.7890625" xlink:href="#BitstreamVeraSans-Roman-31"/>
       <use x="147.412109375" xlink:href="#BitstreamVeraSans-Roman-2e"/>
       <use x="179.19921875" xlink:href="#BitstreamVeraSans-Roman-30"/>
      </g>
     </g>
    </g>
    <g id="xtick_2">
     <g id="line2d_8">
      <g>
       <use style="stroke:#000000;stroke-width:0.5;" x="105.2328125" xlink:href="#mf2cdce7b0f" y="291.0390625"/>
      </g>
     </g>
     <g id="line2d_9">
      <g>
       <use style="stroke:#000000;stroke-width:0.5;" x="105.2328125" xlink:href="#m5602835205" y="12.0390625"/>
      </g>
     </g>
     <g id="text_2">
      <!-- −0.5 -->
      <defs>
       <path d="M 10.796875 72.90625 
L 49.515625 72.90625 
L 49.515625 64.59375 
L 19.828125 64.59375 
L 19.828125 46.734375 
Q 21.96875 47.46875 24.109375 47.828125 
Q 26.265625 48.1875 28.421875 48.1875 
Q 40.625 48.1875 47.75 41.5 
Q 54.890625 34.8125 54.890625 23.390625 
Q 54.890625 11.625 47.5625 5.09375 
Q 40.234375 -1.421875 26.90625 -1.421875 
Q 22.3125 -1.421875 17.546875 -0.640625 
Q 12.796875 0.140625 7.71875 1.703125 
L 7.71875 11.625 
Q 12.109375 9.234375 16.796875 8.0625 
Q 21.484375 6.890625 26.703125 6.890625 
Q 35.15625 6.890625 40.078125 11.328125 
Q 45.015625 15.765625 45.015625 23.390625 
Q 45.015625 31 40.078125 35.4375 
Q 35.15625 39.890625 26.703125 39.890625 
Q 22.75 39.890625 18.8125 39.015625 
Q 14.890625 38.140625 10.796875 36.28125 
z
" id="BitstreamVeraSans-Roman-35"/>
      </defs>
      <g transform="translate(93.09140625 302.6375)scale(0.1 -0.1)">
       <use xlink:href="#BitstreamVeraSans-Roman-2212"/>
       <use x="83.7890625" xlink:href="#BitstreamVeraSans-Roman-30"/>
       <use x="147.412109375" xlink:href="#BitstreamVeraSans-Roman-2e"/>
       <use x="179.19921875" xlink:href="#BitstreamVeraSans-Roman-35"/>
      </g>
     </g>
    </g>
    <g id="xtick_3">
     <g id="line2d_10">
      <g>
       <use style="stroke:#000000;stroke-width:0.5;" x="174.9828125" xlink:href="#mf2cdce7b0f" y="291.0390625"/>
      </g>
     </g>
     <g id="line2d_11">
      <g>
       <use style="stroke:#000000;stroke-width:0.5;" x="174.9828125" xlink:href="#m5602835205" y="12.0390625"/>
      </g>
     </g>
     <g id="text_3">
      <!-- 0.0 -->
      <g transform="translate(167.03125 302.6375)scale(0.1 -0.1)">
       <use xlink:href="#BitstreamVeraSans-Roman-30"/>
       <use x="63.623046875" xlink:href="#BitstreamVeraSans-Roman-2e"/>
       <use x="95.41015625" xlink:href="#BitstreamVeraSans-Roman-30"/>
      </g>
     </g>
    </g>
    <g id="xtick_4">
     <g id="line2d_12">
      <g>
       <use style="stroke:#000000;stroke-width:0.5;" x="244.7328125" xlink:href="#mf2cdce7b0f" y="291.0390625"/>
      </g>
     </g>
     <g id="line2d_13">
      <g>
       <use style="stroke:#000000;stroke-width:0.5;" x="244.7328125" xlink:href="#m5602835205" y="12.0390625"/>
      </g>
     </g>
     <g id="text_4">
      <!-- 0.5 -->
      <g transform="translate(236.78125 302.6375)scale(0.1 -0.1)">
       <use xlink:href="#BitstreamVeraSans-Roman-30"/>
       <use x="63.623046875" xlink:href="#BitstreamVeraSans-Roman-2e"/>
       <use x="95.41015625" xlink:href="#BitstreamVeraSans-Roman-35"/>
      </g>
     </g>
    </g>
    <g id="xtick_5">
     <g id="line2d_14">
      <g>
       <use style="stroke:#000000;stroke-width:0.5;" x="314.4828125" xlink:href="#mf2cdce7b0f" y="291.0390625"/>
      </g>
     </g>
     <g id="line2d_15">
      <g>
       <use style="stroke:#000000;stroke-width:0.5;" x="314.4828125" xlink:href="#m5602835205" y="12.0390625"/>
      </g>
     </g>
     <g id="text_5">
      <!-- 1.0 -->
      <g transform="translate(306.53125 302.6375)scale(0.1 -0.1)">
       <use xlink:href="#BitstreamVeraSans-Roman-31"/>
       <use x="63.623046875" xlink:href="#BitstreamVeraSans-Roman-2e"/>
       <use x="95.41015625" xlink:href="#BitstreamVeraSans-Roman-30"/>
      </g>
     </g>
    </g>
   </g>
   <g id="matplotlib.axis_2">
    <g id="ytick_1">
     <g id="line2d_16">
      <defs>
       <path d="M 0 0 
L 4 0 
" id="mb6656ac9a3" style="stroke:#000000;stroke-width:0.5;"/>
      </defs>
      <g>
       <use style="stroke:#000000;stroke-width:0.5;" x="35.4828125" xlink:href="#mb6656ac9a3" y="291.0390625"/>
      </g>
     </g>
     <g id="line2d_17">
      <defs>
       <path d="M 0 0 
L -4 0 
" id="m7142c5868a" style="stroke:#000000;stroke-width:0.5;"/>
      </defs>
      <g>
       <use style="stroke:#000000;stroke-width:0.5;" x="314.4828125" xlink:href="#m7142c5868a" y="291.0390625"/>
      </g>
     </g>
     <g id="text_6">
      <!-- −1.0 -->
      <g transform="translate(7.2 293.7984375)scale(0.1 -0.1)">
       <use xlink:href="#BitstreamVeraSans-Roman-2212"/>
       <use x="83.7890625" xlink:href="#BitstreamVeraSans-Roman-31"/>
       <use x="147.412109375" xlink:href="#BitstreamVeraSans-Roman-2e"/>
       <use x="179.19921875" xlink:href="#BitstreamVeraSans-Roman-30"/>
      </g>
     </g>
    </g>
    <g id="ytick_2">
     <g id="line2d_18">
      <g>
       <use style="stroke:#000000;stroke-width:0.5;" x="35.4828125" xlink:href="#mb6656ac9a3" y="221.2890625"/>
      </g>
     </g>
     <g id="line2d_19">
      <g>
       <use style="stroke:#000000;stroke-width:0.5;" x="314.4828125" xlink:href="#m7142c5868a" y="221.2890625"/>
      </g>
     </g>
     <g id="text_7">
      <!-- −0.5 -->
      <g transform="translate(7.2 224.0484375)scale(0.1 -0.1)">
       <use xlink:href="#BitstreamVeraSans-Roman-2212"/>
       <use x="83.7890625" xlink:href="#BitstreamVeraSans-Roman-30"/>
       <use x="147.412109375" xlink:href="#BitstreamVeraSans-Roman-2e"/>
       <use x="179.19921875" xlink:href="#BitstreamVeraSans-Roman-35"/>
      </g>
     </g>
    </g>
    <g id="ytick_3">
     <g id="line2d_20">
      <g>
       <use style="stroke:#000000;stroke-width:0.5;" x="35.4828125" xlink:href="#mb6656ac9a3" y="151.5390625"/>
      </g>
     </g>
     <g id="line2d_21">
      <g>
       <use style="stroke:#000000;stroke-width:0.5;" x="314.4828125" xlink:href="#m7142c5868a" y="151.5390625"/>
      </g>
     </g>
     <g id="text_8">
      <!-- 0.0 -->
      <g transform="translate(15.5796875 154.2984375)scale(0.1 -0.1)">
       <use xlink:href="#BitstreamVeraSans-Roman-30"/>
       <use x="63.623046875" xlink:href="#BitstreamVeraSans-Roman-2e"/>
       <use x="95.41015625" xlink:href="#BitstreamVeraSans-Roman-30"/>
      </g>
     </g>
    </g>
    <g id="ytick_4">
     <g id="line2d_22">
      <g>
       <use style="stroke:#000000;stroke-width:0.5;" x="35.4828125" xlink:href="#mb6656ac9a3" y="81.7890625"/>
      </g>
     </g>
     <g id="line2d_23">
      <g>
       <use style="stroke:#000000;stroke-width:0.5;" x="314.4828125" xlink:href="#m7142c5868a" y="81.7890625"/>
      </g>
     </g>
     <g id="text_9">
      <!-- 0.5 -->
      <g transform="translate(15.5796875 84.5484375)scale(0.1 -0.1)">
       <use xlink:href="#BitstreamVeraSans-Roman-30"/>
       <use x="63.623046875" xlink:href="#BitstreamVeraSans-Roman-2e"/>
       <use x="95.41015625" xlink:href="#BitstreamVeraSans-Roman-35"/>
      </g>
     </g>
    </g>
    <g id="ytick_5">
     <g id="line2d_24">
      <g>
       <use style="stroke:#000000;stroke-width:0.5;" x="35.4828125" xlink:href="#mb6656ac9a3" y="12.0390625"/>
      </g>
     </g>
     <g id="line2d_25">
      <g>
       <use style="stroke:#000000;stroke-width:0.5;" x="314.4828125" xlink:href="#m7142c5868a" y="12.0390625"/>
      </g>
     </g>
     <g id="text_10">
      <!-- 1.0 -->
      <g transform="translate(15.5796875 14.7984375)scale(0.1 -0.1)">
       <use xlink:href="#BitstreamVeraSans-Roman-31"/>
       <use x="63.623046875" xlink:href="#BitstreamVeraSans-Roman-2e"/>
       <use x="95.41015625" xlink:href="#BitstreamVeraSans-Roman-30"/>
      </g>
     </g>
    </g>
   </g>
   <g id="legend_1">
    <g id="patch_7">
     <path d="M 228.082812 285.039062 
L 308.482813 285.039062 
L 308.482813 192.648437 
L 228.082812 192.648437 
z
" style="fill:#ffffff;stroke:#000000;stroke-linejoin:miter;"/>
    </g>
    <g id="line2d_26">
     <path d="M 236.482812 202.366562 
L 253.282813 202.366562 
" style="fill:none;stroke:#0000ff;stroke-linecap:square;"/>
    </g>
    <g id="line2d_27"/>
    <g id="text_11">
     <!-- $\rho = 0.0$ -->
     <defs>
      <path d="M 8.40625 5.515625 
Q 8.40625 7.765625 10.0625 9.375 
Q 11.71875 10.984375 13.921875 10.984375 
Q 15.28125 10.984375 16.59375 10.25 
Q 17.921875 9.515625 18.65625 8.203125 
Q 19.390625 6.890625 19.390625 5.515625 
Q 19.390625 3.328125 17.765625 1.65625 
Q 16.15625 0 13.921875 0 
Q 11.71875 0 10.0625 1.65625 
Q 8.40625 3.328125 8.40625 5.515625 
" id="Cmmi10-3a"/>
      <path d="M 25 -2.203125 
Q 12.75 -2.203125 8.328125 7.875 
Q 3.90625 17.96875 3.90625 31.890625 
Q 3.90625 40.578125 5.484375 48.234375 
Q 7.078125 55.90625 11.78125 61.25 
Q 16.5 66.609375 25 66.609375 
Q 31.59375 66.609375 35.78125 63.375 
Q 39.984375 60.15625 42.1875 55.046875 
Q 44.390625 49.953125 45.1875 44.109375 
Q 46 38.28125 46 31.890625 
Q 46 23.296875 44.40625 15.796875 
Q 42.828125 8.296875 38.1875 3.046875 
Q 33.546875 -2.203125 25 -2.203125 
M 25 0.390625 
Q 30.5625 0.390625 33.296875 6.09375 
Q 36.03125 11.8125 36.671875 18.75 
Q 37.3125 25.6875 37.3125 33.5 
Q 37.3125 41.015625 36.671875 47.359375 
Q 36.03125 53.71875 33.3125 58.859375 
Q 30.609375 64.015625 25 64.015625 
Q 19.34375 64.015625 16.609375 58.828125 
Q 13.875 53.65625 13.234375 47.328125 
Q 12.59375 41.015625 12.59375 33.5 
Q 12.59375 27.9375 12.859375 23 
Q 13.140625 18.0625 14.3125 12.8125 
Q 15.484375 7.5625 18.09375 3.96875 
Q 20.703125 0.390625 25 0.390625 
" id="Cmr10-30"/>
      <path d="M 2.78125 -18.796875 
Q 2.78125 -18.21875 2.875 -18.015625 
L 12.796875 21.921875 
Q 14.203125 27.296875 17.640625 32.4375 
Q 21.09375 37.59375 25.96875 40.890625 
Q 30.859375 44.1875 36.28125 44.1875 
Q 40.625 44.1875 43.875 41.921875 
Q 47.125 39.65625 48.75 35.96875 
Q 50.390625 32.28125 50.390625 27.875 
Q 50.390625 23.046875 48.40625 17.875 
Q 46.4375 12.703125 42.9375 8.40625 
Q 39.453125 4.109375 34.90625 1.484375 
Q 30.375 -1.125 25.390625 -1.125 
Q 22.46875 -1.125 19.875 0.609375 
Q 17.28125 2.34375 15.828125 5.171875 
L 9.90625 -18.40625 
Q 9.625 -19.828125 8.453125 -20.703125 
Q 7.28125 -21.578125 5.8125 -21.578125 
Q 4.59375 -21.578125 3.6875 -20.8125 
Q 2.78125 -20.0625 2.78125 -18.796875 
M 25.59375 1.515625 
Q 30.90625 1.515625 34.828125 6.953125 
Q 38.765625 12.40625 40.84375 19.75 
Q 42.921875 27.09375 42.921875 32.171875 
Q 42.921875 35.984375 41.25 38.796875 
Q 39.59375 41.609375 36.078125 41.609375 
Q 31.734375 41.609375 28.40625 38.3125 
Q 25.09375 35.015625 23.09375 30.5625 
Q 21.09375 26.125 19.828125 21.296875 
L 17.09375 10.109375 
Q 17.71875 6.5 19.9375 4 
Q 22.171875 1.515625 25.59375 1.515625 
" id="Cmmi10-bd"/>
      <path d="M 7.515625 13.28125 
Q 6.6875 13.28125 6.140625 13.90625 
Q 5.609375 14.546875 5.609375 15.28125 
Q 5.609375 16.109375 6.140625 16.6875 
Q 6.6875 17.28125 7.515625 17.28125 
L 70.3125 17.28125 
Q 71.046875 17.28125 71.578125 16.6875 
Q 72.125 16.109375 72.125 15.28125 
Q 72.125 14.546875 71.578125 13.90625 
Q 71.046875 13.28125 70.3125 13.28125 
z
M 7.515625 32.71875 
Q 6.6875 32.71875 6.140625 33.296875 
Q 5.609375 33.890625 5.609375 34.71875 
Q 5.609375 35.453125 6.140625 36.078125 
Q 6.6875 36.71875 7.515625 36.71875 
L 70.3125 36.71875 
Q 71.046875 36.71875 71.578125 36.078125 
Q 72.125 35.453125 72.125 34.71875 
Q 72.125 33.890625 71.578125 33.296875 
Q 71.046875 32.71875 70.3125 32.71875 
z
" id="Cmr10-3d"/>
     </defs>
     <g transform="translate(266.4828125 206.5665625)scale(0.12 -0.12)">
      <use transform="translate(0.0 0.390625)" xlink:href="#Cmmi10-bd"/>
      <use transform="translate(69.267578125 0.390625)" xlink:href="#Cmr10-3d"/>
      <use transform="translate(164.51171875 0.390625)" xlink:href="#Cmr10-30"/>
      <use transform="translate(214.51171875 0.390625)" xlink:href="#Cmmi10-3a"/>
      <use transform="translate(259.755859375 0.390625)" xlink:href="#Cmr10-30"/>
     </g>
    </g>
    <g id="line2d_28">
     <path d="M 236.482812 220.124687 
L 253.282813 220.124687 
" style="fill:none;stroke:#008000;stroke-linecap:square;"/>
    </g>
    <g id="line2d_29"/>
    <g id="text_12">
     <!-- $\rho = 0.4$ -->
     <defs>
      <path d="M 2.78125 16.5 
L 2.78125 20.015625 
L 33.6875 66.109375 
Q 34.03125 66.609375 34.71875 66.609375 
L 36.1875 66.609375 
Q 37.3125 66.609375 37.3125 65.484375 
L 37.3125 20.015625 
L 47.125 20.015625 
L 47.125 16.5 
L 37.3125 16.5 
L 37.3125 6.6875 
Q 37.3125 4.640625 40.234375 4.078125 
Q 43.171875 3.515625 47.015625 3.515625 
L 47.015625 0 
L 19.484375 0 
L 19.484375 3.515625 
Q 23.34375 3.515625 26.265625 4.078125 
Q 29.203125 4.640625 29.203125 6.6875 
L 29.203125 16.5 
z
M 6.109375 20.015625 
L 29.78125 20.015625 
L 29.78125 55.421875 
z
" id="Cmr10-34"/>
     </defs>
     <g transform="translate(266.4828125 224.3246875)scale(0.12 -0.12)">
      <use transform="translate(0.0 0.390625)" xlink:href="#Cmmi10-bd"/>
      <use transform="translate(69.267578125 0.390625)" xlink:href="#Cmr10-3d"/>
      <use transform="translate(164.51171875 0.390625)" xlink:href="#Cmr10-30"/>
      <use transform="translate(214.51171875 0.390625)" xlink:href="#Cmmi10-3a"/>
      <use transform="translate(259.755859375 0.390625)" xlink:href="#Cmr10-34"/>
     </g>
    </g>
    <g id="line2d_30">
     <path d="M 236.482812 237.882812 
L 253.282813 237.882812 
" style="fill:none;stroke:#ff0000;stroke-linecap:square;"/>
    </g>
    <g id="line2d_31"/>
    <g id="text_13">
     <!-- $\rho = 0.8$ -->
     <defs>
      <path d="M 4.203125 15.1875 
Q 4.203125 21.1875 8.15625 25.796875 
Q 12.109375 30.421875 18.3125 33.5 
L 14.59375 35.890625 
Q 11.1875 38.140625 9.03125 41.875 
Q 6.890625 45.609375 6.890625 49.703125 
Q 6.890625 54.5 9.40625 58.34375 
Q 11.921875 62.203125 16.09375 64.40625 
Q 20.265625 66.609375 25 66.609375 
Q 29.4375 66.609375 33.5625 64.796875 
Q 37.703125 62.984375 40.359375 59.609375 
Q 43.015625 56.25 43.015625 51.609375 
Q 43.015625 48.25 41.421875 45.359375 
Q 39.84375 42.484375 37.078125 40.1875 
Q 34.328125 37.890625 31.203125 36.28125 
L 36.921875 32.625 
Q 40.875 30.03125 43.28125 25.828125 
Q 45.703125 21.625 45.703125 17 
Q 45.703125 11.578125 42.796875 7.125 
Q 39.890625 2.6875 35.109375 0.234375 
Q 30.328125 -2.203125 25 -2.203125 
Q 19.828125 -2.203125 15.015625 -0.09375 
Q 10.203125 2 7.203125 5.984375 
Q 4.203125 9.96875 4.203125 15.1875 
M 9.625 15.1875 
Q 9.625 11.234375 11.796875 7.953125 
Q 13.96875 4.6875 17.53125 2.828125 
Q 21.09375 0.984375 25 0.984375 
Q 30.8125 0.984375 35.546875 4.375 
Q 40.28125 7.765625 40.28125 13.375 
Q 40.28125 15.28125 39.515625 17.15625 
Q 38.765625 19.046875 37.421875 20.578125 
Q 36.078125 22.125 34.421875 23.09375 
L 21 31.78125 
Q 17.875 30.125 15.25 27.578125 
Q 12.640625 25.046875 11.125 21.875 
Q 9.625 18.703125 9.625 15.1875 
M 16.5 45.703125 
L 28.609375 37.890625 
Q 32.8125 40.328125 35.5 43.796875 
Q 38.1875 47.265625 38.1875 51.609375 
Q 38.1875 54.984375 36.296875 57.78125 
Q 34.421875 60.59375 31.390625 62.15625 
Q 28.375 63.71875 24.90625 63.71875 
Q 21.875 63.71875 18.796875 62.546875 
Q 15.71875 61.375 13.71875 59.046875 
Q 11.71875 56.734375 11.71875 53.609375 
Q 11.71875 48.921875 16.5 45.703125 
" id="Cmr10-38"/>
     </defs>
     <g transform="translate(266.4828125 242.0828125)scale(0.12 -0.12)">
      <use transform="translate(0.0 0.390625)" xlink:href="#Cmmi10-bd"/>
      <use transform="translate(69.267578125 0.390625)" xlink:href="#Cmr10-3d"/>
      <use transform="translate(164.51171875 0.390625)" xlink:href="#Cmr10-30"/>
      <use transform="translate(214.51171875 0.390625)" xlink:href="#Cmmi10-3a"/>
      <use transform="translate(259.755859375 0.390625)" xlink:href="#Cmr10-38"/>
     </g>
    </g>
    <g id="line2d_32">
     <path d="M 236.482812 255.640937 
L 253.282813 255.640937 
" style="fill:none;stroke:#00bfbf;stroke-linecap:square;"/>
    </g>
    <g id="line2d_33"/>
    <g id="text_14">
     <!-- $\rho = 0.9$ -->
     <defs>
      <path d="M 11.28125 4.203125 
Q 14.015625 0.984375 20.796875 0.984375 
Q 24.609375 0.984375 27.90625 3.5625 
Q 31.203125 6.15625 33.015625 9.90625 
Q 35.109375 14.15625 35.6875 18.96875 
Q 36.28125 23.78125 36.28125 30.90625 
Q 34.578125 26.859375 31.375 24.265625 
Q 28.171875 21.6875 24.03125 21.6875 
Q 18.21875 21.6875 13.640625 24.828125 
Q 9.078125 27.984375 6.640625 33.125 
Q 4.203125 38.28125 4.203125 44.09375 
Q 4.203125 50.09375 6.9375 55.296875 
Q 9.671875 60.5 14.5 63.546875 
Q 19.34375 66.609375 25.484375 66.609375 
Q 31.546875 66.609375 35.625 63.3125 
Q 39.703125 60.015625 41.84375 54.8125 
Q 44 49.609375 44.84375 43.796875 
Q 45.703125 37.984375 45.703125 32.328125 
Q 45.703125 24.609375 42.875 16.578125 
Q 40.046875 8.546875 34.40625 3.171875 
Q 28.765625 -2.203125 20.796875 -2.203125 
Q 14.890625 -2.203125 10.78125 0.578125 
Q 6.6875 3.375 6.6875 8.984375 
Q 6.6875 11.03125 8.078125 12.421875 
Q 9.46875 13.8125 11.53125 13.8125 
Q 13.53125 13.8125 14.921875 12.421875 
Q 16.3125 11.03125 16.3125 8.984375 
Q 16.3125 7.03125 14.890625 5.609375 
Q 13.484375 4.203125 11.53125 4.203125 
z
M 24.421875 24.3125 
Q 28.515625 24.3125 31.125 27.0625 
Q 33.734375 29.828125 34.90625 33.921875 
Q 36.078125 38.03125 36.078125 42.09375 
L 36.078125 44 
L 36.078125 44.390625 
Q 36.078125 51.90625 33.875 57.8125 
Q 31.6875 63.71875 25.484375 63.71875 
Q 21.53125 63.71875 19.0625 61.984375 
Q 16.609375 60.25 15.4375 57.375 
Q 14.265625 54.5 13.9375 51.21875 
Q 13.625 47.953125 13.625 44.09375 
Q 13.625 38.421875 14.15625 34.421875 
Q 14.703125 30.421875 17.09375 27.359375 
Q 19.484375 24.3125 24.421875 24.3125 
" id="Cmr10-39"/>
     </defs>
     <g transform="translate(266.4828125 259.8409375)scale(0.12 -0.12)">
      <use transform="translate(0.0 0.390625)" xlink:href="#Cmmi10-bd"/>
      <use transform="translate(69.267578125 0.390625)" xlink:href="#Cmr10-3d"/>
      <use transform="translate(164.51171875 0.390625)" xlink:href="#Cmr10-30"/>
      <use transform="translate(214.51171875 0.390625)" xlink:href="#Cmmi10-3a"/>
      <use transform="translate(259.755859375 0.390625)" xlink:href="#Cmr10-39"/>
     </g>
    </g>
    <g id="line2d_34">
     <path d="M 236.482812 273.399062 
L 253.282813 273.399062 
" style="fill:none;stroke:#bf00bf;stroke-linecap:square;"/>
    </g>
    <g id="line2d_35"/>
    <g id="text_15">
     <!-- $\rho = 1.0$ -->
     <defs>
      <path d="M 9.28125 0 
L 9.28125 3.515625 
Q 21.78125 3.515625 21.78125 6.6875 
L 21.78125 59.1875 
Q 16.609375 56.6875 8.6875 56.6875 
L 8.6875 60.203125 
Q 20.953125 60.203125 27.203125 66.609375 
L 28.609375 66.609375 
Q 28.953125 66.609375 29.265625 66.328125 
Q 29.59375 66.0625 29.59375 65.71875 
L 29.59375 6.6875 
Q 29.59375 3.515625 42.09375 3.515625 
L 42.09375 0 
z
" id="Cmr10-31"/>
     </defs>
     <g transform="translate(266.4828125 277.5990625)scale(0.12 -0.12)">
      <use transform="translate(0.0 0.390625)" xlink:href="#Cmmi10-bd"/>
      <use transform="translate(69.267578125 0.390625)" xlink:href="#Cmr10-3d"/>
      <use transform="translate(164.51171875 0.390625)" xlink:href="#Cmr10-31"/>
      <use transform="translate(214.51171875 0.390625)" xlink:href="#Cmmi10-3a"/>
      <use transform="translate(259.755859375 0.390625)" xlink:href="#Cmr10-30"/>
     </g>
    </g>
   </g>
  </g>
 </g>
 <defs>
  <clipPath id="p539bbdcd98">
   <rect height="279.0" width="279.0" x="35.4828125" y="12.0390625"/>
  </clipPath>
 </defs>
</svg>
